PathFileType	4	(X/Y/Z)	24_2_60_p0_0-1411_filt_butterworth.trc
DataRate	CameraRate	NumFrames	NumMarkers	Units	OrigDataRate	OrigDataStartFrame	OrigNumFrames
59.0	59.0	4	27	m	59.0	0	1411
Frame#	Time	RHip			RKnee			RAnkle			RBigToe			RSmallToe			RHeel			LHip			LKnee			LAnkle			LBigToe			LSmallToe			LHeel			Neck			Head			Nose			RShoulder			RElbow			RWrist			RThumb			RIndex			RPinky			LShoulder			LElbow			LWrist			LThumb			LIndex			LPinky			
		X1	Y1	Z1	X2	Y2	Z2	X3	Y3	Z3	X4	Y4	Z4	X5	Y5	Z5	X6	Y6	Z6	X7	Y7	Z7	X8	Y8	Z8	X9	Y9	Z9	X10	Y10	Z10	X11	Y11	Z11	X12	Y12	Z12	X13	Y13	Z13	X14	Y14	Z14	X15	Y15	Z15	X16	Y16	Z16	X17	Y17	Z17	X18	Y18	Z18	X19	Y19	Z19	X20	Y20	Z20	X21	Y21	Z21	X22	Y22	Z22	X23	Y23	Z23	X24	Y24	Z24	X25	Y25	Z25	X26	Y26	Z26	X27	Y27	Z27	
0	0.0	0.43201484418278235	0.5720515202318867	0.8342258863323126	0.445563333130783	0.627173285734736	1.2843475472507997	0.4187646180438864	0.7073649575716815	1.6986217694390386	0.40582420279324466	0.5312888400633407	1.712771259635244	0.45876320031801554	0.5175911236849235	1.688745527599168	0.39138645255520366	0.7854539378079302	1.770586349828558	0.24574362576321196	0.5182922735034917	0.8288039770465702	0.2147557849078501	0.6139490380482804	1.2867080680806888	0.21684732789992464	0.667035702066546	1.6869134561700618	0.24517381428904897	0.48126794780090837	1.6854769773634801	0.1889261354958085	0.5218875034264294	1.698285295243478	0.22608036675242843	0.7296351036760125	1.733621848194682	0.34279535647455117	0.41581462603752617	0.35398833725382706	0.335871885567696	0.33913582791841146	0.11882083270500668	0.33403059235627436	0.2780023891930079	0.2351573458868199	0.47994411228614453	0.4313591795298242	0.4345459683831383	0.4970315633848337	0.47298256750031353	0.6773608374083344	0.42554095981354934	0.39426824539116845	0.8894765637026893	0.3241603959876236	0.3904528379486234	0.9643677452337847	0.3201043403610869	0.41177639416291356	0.9957024713684147	0.36941356741246373	0.47675376081633325	1.0349215828820526	0.18562003641136515	0.44919594959223363	0.4534785462917611	0.1791804578863736	0.4122388684809138	0.6705500346900947	0.26295520554705937	0.40743652908305716	0.8745030906636265	0.3262982394228852	0.36324439434793443	0.9266254687207431	0.32816288719640374	0.36152385531510944	0.952670656731869	0.3232568087330262	0.3897415881870468	0.9677305273773988
1	0.0169491525423728	0.43239170835815793	0.573247331049298	0.8349941382280539	0.4460825485158759	0.627476052501121	1.2880318380380573	0.4227143005148164	0.6936202388926443	1.6905699737760849	0.4063834324915546	0.5224602151266486	1.7082366533481672	0.461179118765054	0.5171812371048143	1.6859659877144346	0.3972865490964125	0.772985399229026	1.7658763571070741	0.24792075188234663	0.5149703842851202	0.8302831050094646	0.21676415032433177	0.6136567541391242	1.2875555220388069	0.2168806408013454	0.666975281877745	1.6867358653769622	0.24547157805088218	0.4840706681075938	1.6859668688586456	0.1879993154856242	0.5353834610008422	1.7014120347656938	0.22677883096065124	0.7293525211484303	1.7300487166491179	0.34295489139347973	0.4155803963141165	0.3561077872136803	0.33705027314450264	0.34464380538723444	0.11668977901293798	0.3340941156998214	0.2790316306921402	0.2394440812206552	0.4775683993834116	0.43049688410306597	0.43373428692968036	0.4996941837317653	0.47524741078703403	0.6798846997529219	0.4282323352256613	0.397172535398547	0.8891060901502761	0.32398846668468906	0.39078609855760676	0.9643711457413943	0.3201116807456363	0.4159289424906114	0.9952872316895032	0.3701935124279151	0.47986016668269094	1.0359958054597658	0.18483071059271036	0.44137230184475773	0.45319458223504083	0.18066154421837807	0.4204400919901722	0.6771055712863068	0.2644130247177136	0.41497980208496693	0.8760707266327102	0.3275061784998697	0.3698277969219622	0.927163297114485	0.32940851411632177	0.3676100101896906	0.9536098735709091	0.3235833448773213	0.388807199466359	0.9693050103499024
2	0.0338983050847457	0.432431925355515	0.5734479615340313	0.8360422907591919	0.44657382995605394	0.6277231075083465	1.2914734145845528	0.4249498700366113	0.6873988051196663	1.6862979000384346	0.40664670972002287	0.5143506529779702	1.703986133923796	0.4632411533742588	0.5170543672521731	1.6842838369439526	0.3998788145019482	0.7661899008813939	1.7629397035140522	0.24865068192628478	0.5138743857888477	0.8327909448041458	0.21759469872098447	0.6131622831574605	1.2885072277878031	0.21689969531377812	0.6669538426747296	1.6866391663860356	0.24553433187134208	0.48384317778371705	1.685295942808499	0.18780961873888155	0.5426610458829898	1.7023676792331566	0.22728078692185155	0.7293143731837015	1.728123283196556	0.3430491902822809	0.41542434748668455	0.35738104382172253	0.33771102956046706	0.34788392611137514	0.11543140661906715	0.33406493217218286	0.2795019744779841	0.24161832147629242	0.47615182713792975	0.42995057017059723	0.4334257862267933	0.5015034596969792	0.4771313130518454	0.681848913415347	0.43101767031981486	0.39962099849082533	0.8894784264757788	0.3238679110015293	0.39102254869943215	0.964283648548094	0.32156175222367245	0.4203711660349312	0.99580450305679	0.3698996063862454	0.48196000206335976	1.035601239050133	0.18435993884835883	0.4365794476791969	0.45305053764321573	0.1816946981116266	0.42530289881683325	0.6813478741064498	0.2666785942179608	0.4214518841726825	0.8774505684322749	0.3291961078452407	0.3745746833066041	0.9282722175217926	0.3324529090645114	0.37398024338956687	0.9547603573801846	0.32529554152232465	0.3906690520593907	0.9719323194811247
3	0.0508474576271186	0.4325660415986774	0.5717615714126245	0.8371256030476342	0.44691110118333843	0.6278417500537848	1.2937947706153459	0.4254141576737937	0.687677147748573	1.685275556846128	0.4068812568497151	0.5081680262310787	1.7006351231245715	0.46449893970480455	0.5171410654022697	1.6837850663203442	0.3991078801272362	0.7661350250388463	1.7614845969369632	0.24772922316073226	0.5143854531246569	0.8356731687514516	0.2168880620192313	0.6124606690078411	1.2900990201351827	0.2169025281956255	0.6669655643177911	1.6866292364763313	0.24536650343947752	0.48156474526976145	1.683732501542923	0.18850852217938815	0.5431084652763758	1.701645667937941	0.22764708241302778	0.7295262375318561	1.7283660420809532	0.3430791575394291	0.4153381671821988	0.35777565546302886	0.3378254697002432	0.34871357792061186	0.11509489018778375	0.3339422420443299	0.2793298023182035	0.2413386220847185	0.4757471011429071	0.4297722423640865	0.43377816057251434	0.5028948995080458	0.4796705446675341	0.6835167356663933	0.4339736603779939	0.4013976450334755	0.8902394339724744	0.324155073699029	0.3909271208370609	0.9639909047143983	0.32502322920233206	0.4238090084446467	0.9965352877368842	0.3680453478655036	0.483011214799747	1.0330846623557408	0.1842574637811015	0.43536986626900465	0.45305930258263993	0.1821857510908496	0.4267488782790941	0.6823055663804267	0.2698991278540761	0.427481888738104	0.8787273452644399	0.3318479119438021	0.3783308441046432	0.9301501054498476	0.33834241102471374	0.38317344147303906	0.9569798805598907	0.32890798326606246	0.3979806959988437	0.9757488447031439
